<?xml version="1.0" encoding="UTF-8"?>
<svg id="a" data-name="Camada 1" xmlns="http://www.w3.org/2000/svg" viewBox="0 0 185.49 206.01">
  <defs>
    <style>
      .b {
        fill: #76189e;
      }

      .c {
        fill: #123cb2;
      }

      .d {
        fill: #1d1d1b;
      }
    </style>
  </defs>
  <path class="c" d="m75.39,73.68c-3.91-2.57-8.59-4.21-14.06-4.93,5.08-.85,9.44-2.47,13.09-4.88,3.65-2.41,6.41-5.52,8.3-9.33,1.89-3.81,2.83-8.12,2.83-12.94v-7.71c0-7.16-1.43-13.26-4.3-18.31-2.87-5.04-7.05-8.9-12.55-11.57C63.2,1.33,56.54,0,48.73,0H1.46v141.99h49.12c7.75,0,14.39-1.33,19.92-4,5.53-2.67,9.73-6.56,12.6-11.67,2.86-5.11,4.3-11.28,4.3-18.51v-9.86c0-5.4-1.03-10.16-3.08-14.26s-5.03-7.44-8.94-10.01Zm-28.42-49.56c4.17,0,7.42,1.04,9.77,3.12,2.34,2.08,3.52,5.01,3.52,8.79v7.62c0,4.23-1.16,7.49-3.47,9.77-2.31,2.28-5.58,3.42-9.81,3.42h-20.12V24.12h20.12Zm14.84,80.66c0,4.1-1.25,7.29-3.76,9.57-2.51,2.28-6.04,3.42-10.6,3.42h-20.61v-36.82h20.41c3.06,0,5.7.55,7.91,1.66,2.21,1.11,3.87,2.7,4.98,4.79,1.11,2.08,1.66,4.62,1.66,7.62v9.77Z"/>
  <circle class="b" cx="105.14" cy="49.24" r="13.04"/>
  <circle class="b" cx="172.45" cy="47.6" r="13.04"/>
  <path class="b" d="m172.45,75.42c-5.8,0-10.5,4.7-10.5,10.5,0,.9-.42,6.61-.42,6.61-2.08,16.31-11.64,29.07-22.73,29.07-12.55,0-23.15-16.34-23.15-35.68,0-5.8-4.7-10.5-10.5-10.5s-10.5,4.7-10.5,10.5c0,14.54,4.22,28.33,11.87,38.84,8.26,11.34,20.03,17.84,32.28,17.84,8.08,0,15.94-2.84,22.73-8.02v25.38c0,3.42-.65,6.77-1.92,9.94-2.91,7.23-8.78,12.45-16.1,14.34-7.3,1.88-14.9.19-20.85-4.66-4.5-3.66-11.11-2.98-14.77,1.51-3.66,4.5-2.98,11.11,1.51,14.77,8.17,6.65,18.03,10.14,28.15,10.14,3.72,0,7.48-.47,11.2-1.43,13.85-3.57,24.91-13.35,30.34-26.83,2.29-5.68,3.44-11.66,3.44-17.78v-66.15c.28-2.6.42-5.24.42-7.9,0-5.8-4.7-10.5-10.5-10.5Z"/>
  <rect class="d" y="151.98" width="120.51" height="13.04"/>
</svg>