<?xml version="1.0" encoding="UTF-8"?>
<svg id="a" data-name="Camada 1" xmlns="http://www.w3.org/2000/svg" viewBox="0 0 806.35 183.2">
  <defs>
    <style>
      .b {
        fill: #fff;
      }
    </style>
  </defs>
  <circle class="b" cx="464.5" cy="26.02" r="13.04"/>
  <circle class="b" cx="531.81" cy="24.38" r="13.04"/>
  <g>
    <path class="b" d="m73.93,73.68c-3.91-2.57-8.59-4.21-14.06-4.93,5.08-.85,9.44-2.47,13.09-4.88,3.65-2.41,6.41-5.52,8.3-9.33,1.89-3.81,2.83-8.12,2.83-12.94v-7.71c0-7.16-1.43-13.26-4.3-18.31-2.87-5.04-7.05-8.9-12.55-11.57C61.73,1.33,55.08,0,47.27,0H0v141.99h49.12c7.75,0,14.39-1.33,19.92-4,5.53-2.67,9.73-6.56,12.6-11.67,2.86-5.11,4.3-11.28,4.3-18.51v-9.86c0-5.4-1.03-10.16-3.08-14.26s-5.03-7.44-8.94-10.01Zm-28.42-49.56c4.17,0,7.42,1.04,9.77,3.12,2.34,2.08,3.52,5.01,3.52,8.79v7.62c0,4.23-1.16,7.49-3.47,9.77-2.31,2.28-5.58,3.42-9.81,3.42h-20.12V24.12h20.12Zm14.84,80.66c0,4.1-1.25,7.29-3.76,9.57-2.51,2.28-6.04,3.42-10.6,3.42h-20.61v-36.82h20.41c3.06,0,5.7.55,7.91,1.66,2.21,1.11,3.87,2.7,4.98,4.79,1.11,2.08,1.66,4.62,1.66,7.62v9.77Z"/>
    <path class="b" d="m160.4,43.12c-5.57-2.77-12.22-4.15-19.97-4.15s-14.49,1.38-20.02,4.15c-5.53,2.77-9.75,6.8-12.65,12.11-2.9,5.31-4.35,11.7-4.35,19.19v33.2c0,7.55,1.45,14.01,4.35,19.38,2.9,5.37,7.11,9.46,12.65,12.26,5.53,2.8,12.21,4.2,20.02,4.2s14.4-1.4,19.97-4.2,9.8-6.85,12.7-12.16c2.9-5.31,4.35-11.7,4.35-19.19v-33.5c0-7.49-1.45-13.88-4.35-19.19-2.9-5.31-7.13-9.34-12.7-12.11Zm-8.25,63.82c0,4.04-1.03,7.18-3.08,9.42s-4.93,3.37-8.64,3.37-6.67-1.11-8.69-3.32c-2.02-2.21-3.03-5.37-3.03-9.47v-31.64c0-3.97,1.03-7.06,3.08-9.28,2.05-2.21,4.93-3.32,8.64-3.32s6.59,1.09,8.64,3.27c2.05,2.18,3.08,5.29,3.08,9.33v31.64Z"/>
    <polygon class="b" points="270.51 40.62 243.16 40.62 230.22 69.28 216.21 40.62 188.77 40.62 217.44 90.8 187.21 141.99 214.06 141.99 229.46 112.95 244.82 141.99 272.07 141.99 241.97 91.61 270.51 40.62"/>
    <path class="b" d="m318.99,138.92c3.87,3.03,8.45,4.54,13.72,4.54,5.73,0,10.64-1.42,14.75-4.25s7.23-6.93,9.38-12.3,3.22-11.9,3.22-19.58v-32.23c0-7.68-1.06-14.22-3.17-19.63-2.12-5.4-5.21-9.5-9.28-12.3-4.07-2.8-8.97-4.2-14.7-4.2-4.88,0-9.34,1.63-13.38,4.88-3.03,2.44-5.63,5.61-7.81,9.51v-12.73h-25.39v142.58h25.39v-53.74c1.82,3.92,4.24,7.08,7.28,9.45Zm-5.96-24.56c-.88-1.89-1.32-4.2-1.32-6.93v-32.42c0-2.67.44-4.96,1.32-6.88.88-1.92,2.18-3.37,3.91-4.35,1.72-.98,3.82-1.46,6.3-1.46,3.71,0,6.58,1.29,8.59,3.86,2.02,2.57,3.03,6.14,3.03,10.69v28.71c0,4.62-1.01,8.2-3.03,10.74-2.02,2.54-4.88,3.81-8.59,3.81-2.48,0-4.57-.49-6.3-1.46-1.73-.98-3.03-2.41-3.91-4.3Z"/>
    <path class="b" d="m431.93,85.3c-4.1-1.66-9.38-3.17-15.82-4.54-.13-.06-.26-.1-.39-.1s-.26-.06-.39-.2c-.26,0-.55-.03-.88-.1-.33-.06-.59-.13-.78-.2-4.1-.78-7.28-1.53-9.52-2.25-2.25-.72-4.1-1.71-5.57-2.98s-2.2-2.94-2.2-5.03c0-2.41,1.06-4.28,3.17-5.62,2.11-1.33,5.06-2,8.84-2,3.52,0,6.67.91,9.47,2.73,2.8,1.82,5.04,4.39,6.74,7.71l20.51-10.16c-1.5-5.01-3.92-9.26-7.28-12.74-3.35-3.48-7.5-6.15-12.45-8.01-4.95-1.86-10.55-2.78-16.8-2.78-7.29,0-13.62,1.25-18.99,3.76-5.37,2.51-9.47,6.1-12.3,10.79s-4.25,10.25-4.25,16.7,1.28,11.93,3.86,15.87c2.57,3.94,5.76,6.82,9.57,8.64,3.81,1.82,8.54,3.42,14.21,4.79.26.07.5.11.73.15.23.03.44.11.63.24.98.2,1.9.41,2.78.63.88.23,1.71.44,2.49.63,3.84.85,6.79,1.61,8.84,2.29s3.78,1.66,5.18,2.93c1.4,1.27,2.1,3.08,2.1,5.42,0,2.48-1.14,4.48-3.42,6.01-2.28,1.53-5.44,2.29-9.47,2.29-4.43,0-8.4-1.06-11.91-3.17-3.52-2.11-6.32-5.06-8.4-8.84l-20.61,10.64c1.43,5.14,3.96,9.57,7.57,13.28s8.12,6.53,13.53,8.45c5.4,1.92,11.52,2.88,18.36,2.88,7.62,0,14.29-1.3,20.02-3.91,5.73-2.6,10.09-6.3,13.09-11.08,2.99-4.79,4.49-10.46,4.49-17.04,0-7.49-1.43-13.3-4.3-17.43-2.87-4.13-6.35-7.03-10.45-8.69Z"/>
    <path class="b" d="m571.87,139.06c5.83,2.93,12.81,4.39,20.95,4.39,7.03,0,12.99-.96,17.87-2.88s8.79-4.93,11.72-9.03,4.88-9.24,5.86-15.43l-23.44-8.2c-.91,3.97-2.36,6.93-4.35,8.89-1.99,1.95-4.61,2.93-7.86,2.93-4.17,0-7.41-1.28-9.72-3.86-2.31-2.57-3.47-6.2-3.47-10.89v-27.05c0-4.88,1.19-8.64,3.56-11.28,2.38-2.64,5.58-3.96,9.62-3.96,3.25,0,5.89,1.01,7.91,3.03,2.02,2.02,3.42,5.14,4.2,9.38l23.44-7.91c-.91-6.38-2.83-11.67-5.76-15.87s-6.85-7.29-11.77-9.28c-4.92-1.99-10.86-2.98-17.82-2.98-8.14,0-15.12,1.48-20.95,4.44-5.83,2.96-10.27,7.29-13.33,12.99-3.06,5.7-4.59,12.52-4.59,20.46v29c0,7.88,1.53,14.63,4.59,20.26,3.06,5.63,7.5,9.91,13.33,12.84Z"/>
    <path class="b" d="m662.7,75.78c0-4.1,1.01-7.26,3.03-9.47,2.02-2.21,4.92-3.32,8.69-3.32s6.82,1.09,8.94,3.27c2.12,2.18,3.17,5.36,3.17,9.52v66.21h25.39v-69.53c0-10.68-2.33-18.93-6.98-24.76-4.66-5.83-11.21-8.74-19.68-8.74-5.6,0-10.45,1.66-14.55,4.98-3.18,2.57-5.85,6.04-8.01,10.38V0h-25.39v141.99h25.39v-66.21Z"/>
    <path class="b" d="m802,55.22c-2.9-5.31-7.13-9.34-12.7-12.11-5.57-2.77-12.22-4.15-19.97-4.15s-14.49,1.38-20.02,4.15c-5.53,2.77-9.75,6.8-12.65,12.11-2.9,5.31-4.35,11.7-4.35,19.19v33.2c0,7.55,1.45,14.01,4.35,19.38,2.9,5.37,7.11,9.46,12.65,12.26,5.53,2.8,12.21,4.2,20.02,4.2s14.4-1.4,19.97-4.2,9.8-6.85,12.7-12.16c2.9-5.31,4.35-11.7,4.35-19.19v-33.5c0-7.49-1.45-13.88-4.35-19.19Zm-20.95,51.71c0,4.04-1.03,7.18-3.08,9.42s-4.93,3.37-8.64,3.37-6.67-1.11-8.69-3.32c-2.02-2.21-3.03-5.37-3.03-9.47v-31.64c0-3.97,1.03-7.06,3.08-9.28,2.05-2.21,4.93-3.32,8.64-3.32s6.59,1.09,8.64,3.27c2.05,2.18,3.08,5.29,3.08,9.33v31.64Z"/>
    <path class="b" d="m531.81,52.2c-5.8,0-10.5,4.7-10.5,10.5,0,.9-.42,6.61-.42,6.61-2.08,16.31-11.64,29.07-22.73,29.07-12.55,0-23.15-16.34-23.15-35.68,0-5.8-4.7-10.5-10.5-10.5s-10.5,4.7-10.5,10.5c0,14.54,4.22,28.33,11.87,38.84,8.26,11.34,20.03,17.84,32.28,17.84,8.08,0,15.94-2.84,22.73-8.02v25.38c0,3.42-.65,6.77-1.92,9.94-2.91,7.23-8.78,12.45-16.1,14.34-7.3,1.88-14.9.19-20.85-4.66-4.5-3.66-11.11-2.98-14.77,1.51-3.66,4.5-2.98,11.11,1.51,14.77,8.17,6.65,18.03,10.14,28.15,10.14,3.72,0,7.48-.47,11.2-1.43,13.85-3.57,24.91-13.35,30.34-26.83,2.29-5.68,3.44-11.66,3.44-17.78v-66.15c.28-2.6.42-5.24.42-7.9,0-5.8-4.7-10.5-10.5-10.5Z"/>
    <rect class="b" x="570.19" y="158.57" width="219.65" height="19.83"/>
    <rect class="b" x="328.1" y="158.57" width="114.78" height="19.83"/>
  </g>
</svg>