<?xml version="1.0" encoding="UTF-8"?>
<svg xmlns="http://www.w3.org/2000/svg" viewBox="0 0 1409 1316.58">
  <defs>
    <style>
      .e {
        fill: #fff;
      }

      .f {
        fill: #a9b1b7;
      }

      .f, .g, .h, .i, .j {
        mix-blend-mode: multiply;
      }

      .g {
        fill: #b6d9ff;
      }

      .k {
        isolation: isolate;
      }

      .h {
        opacity: .15;
      }

      .l {
        fill: #76189e;
      }

      .i {
        fill: #93c180;
      }

      .m {
        fill: #123cb2;
      }
    </style>
  </defs>
  <g class="k">
    <g id="a" data-name="Camada 5">
      <path class="h" d="m1315.96,1246.03c-3.04-2.35-6.77-3.64-10.61-3.65l-895.57-2.95c-11.75,0-23.01-4.67-31.32-12.97l-195.76-206.02c-3.19-2.81-7.29-4.35-11.54-4.34l-93.47.18c-14.06.02-21.22,16.71-11.9,26.9.36.39.75.75,1.14,1.1l266.91,267.59c3.02,3.02,7.11,4.71,11.38,4.71h1021.24c12.91,0,20.01-14.04,13.91-24.24-1.02-1.7-2.42-3.15-3.99-4.36l-60.44-41.94Z"/>
    </g>
    <g id="b" data-name="Camada 2">
      <g>
        <path d="m1409,1204.98H402.64L0,802.34v-200.39c0-2.08,1.24-3.93,3.16-4.72,1.92-.79,4.1-.36,5.57,1.11l397.64,397.64h1002.64v209Zm-1002.64-9h993.64v-191H402.64L9,611.34v187.27l397.36,397.36Z"/>
        <path d="m404.5,1204.98c-2.49,0-4.5-2.01-4.5-4.5v-200c0-2.49,2.01-4.5,4.5-4.5s4.5,2.01,4.5,4.5v200c0,2.49-2.01,4.5-4.5,4.5Z"/>
        <path d="m1204.86,804.86h-600c-2.49,0-4.5-2.01-4.5-4.5s2.01-4.5,4.5-4.5h600c2.49,0,4.5,2.01,4.5,4.5s-2.01,4.5-4.5,4.5Z"/>
        <path d="m1004.5,1004.98c-1.15,0-2.3-.44-3.18-1.32l-400-400c-1.76-1.76-1.76-4.61,0-6.36,1.76-1.76,4.61-1.76,6.36,0l400,400c1.76,1.76,1.76,4.61,0,6.36-.88.88-2.03,1.32-3.18,1.32Z"/>
        <path d="m1204.5,1004.98c-1.15,0-2.3-.44-3.18-1.32l-400-400c-1.76-1.76-1.76-4.61,0-6.36,1.76-1.76,4.61-1.76,6.36,0l400,400c1.76,1.76,1.76,4.61,0,6.36-.88.88-2.03,1.32-3.18,1.32Z"/>
        <g>
          <path d="m210.9,662.97c-1.26-.34-2.53-.55-3.79-.64.9-.11,1.52-.33,1.85-.65.33-.32.36-.73.08-1.23-.28-.5-.84-1.07-1.69-1.71l-1.36-1.02c-1.26-.94-2.63-1.74-4.11-2.4-1.48-.66-3.02-1.16-4.63-1.51-1.6-.35-3.21-.51-4.82-.51l-4.51.02h-2.59s-2.63.02-2.63.02l24.89,18.68h2.66s2.62,0,2.62,0h4.94c1.61,0,2.76-.18,3.44-.54.68-.36.87-.87.56-1.55-.31-.68-1.1-1.5-2.39-2.45l-1.75-1.31c-.96-.71-2.01-1.34-3.16-1.88s-2.36-.98-3.63-1.32Zm-14.6-6.5c.86,0,1.72.13,2.57.4.85.27,1.61.66,2.27,1.15l1.34,1c.74.56,1.08.99,1,1.29-.08.3-.55.45-1.43.46h-4.16s-5.73-4.28-5.73-4.28l4.15-.02Zm17.27,10.62c.73.54,1.03.96.91,1.27-.12.3-.65.45-1.6.46h-4.28s-6.48-4.85-6.48-4.85h4.23c.63-.01,1.28.06,1.93.2.65.15,1.28.35,1.88.63.6.27,1.16.61,1.69,1.01l1.73,1.29Z"/>
          <path d="m223.49,658.88c-1.65-.36-3.28-.54-4.9-.53s-2.77.19-3.43.56c-.66.37-.82.9-.49,1.6.34.7,1.17,1.55,2.49,2.54l5.88,4.39c1.34,1,2.79,1.86,4.35,2.57,1.56.71,3.17,1.25,4.83,1.62,1.66.37,3.31.56,4.95.55s2.77-.19,3.44-.56.83-.91.49-1.62c-.34-.71-1.18-1.56-2.52-2.55l-5.97-4.44c-1.33-.99-2.77-1.84-4.32-2.54-1.55-.7-3.15-1.23-4.8-1.59Zm9.62,8.45c.72.54,1.06.95,1.04,1.25s-.43.45-1.21.45-1.59-.14-2.41-.44c-.82-.29-1.59-.71-2.32-1.26l-5.62-4.19c-.7-.52-1.04-.93-1-1.23.04-.29.44-.44,1.21-.44s1.57.14,2.38.43c.82.29,1.58.7,2.3,1.23l5.63,4.19Z"/>
          <polygon points="246.1 658.47 240.36 658.49 242.76 662.3 234.71 658.51 228.97 658.53 243.93 665.16 246.74 671.98 252.4 671.98 250.43 668.1 258.89 671.97 264.66 671.96 249.23 665.26 246.1 658.47"/>
          <path d="m274.06,671.54c1.37.4,2.62.61,3.74.61,1.22,0,2.01-.19,2.37-.57s.28-.93-.24-1.65c-.52-.72-1.48-1.59-2.87-2.62l-5.84-4.3c-1.39-1.02-2.8-1.89-4.22-2.61-1.42-.72-2.82-1.26-4.18-1.63-1.36-.37-2.65-.55-3.86-.55-1.03,0-1.68.22-1.95.66-.2.33-.18.75.06,1.27l-2.29-1.69-5.35.02,25.72,19.02h5.41l-9.75-7.2c1.1.52,2.18.95,3.26,1.26Zm-5.71-3.28c-.53-.25-1.04-.56-1.53-.93l-5.85-4.32c-.48-.36-.8-.66-.96-.92-.16-.26-.15-.45.04-.58.19-.13.54-.2,1.07-.2.78,0,1.62.17,2.51.51.89.34,1.75.82,2.57,1.42l5.19,3.83c.84.62,1.27,1.1,1.3,1.44.03.34-.35.51-1.14.51-.53,0-1.06-.06-1.6-.19-.54-.13-1.08-.32-1.61-.57Z"/>
          <path d="m288.37,664.32c-1.18-.22-2.58-.42-4.2-.6-.04,0-.07-.01-.1-.01s-.07,0-.12-.03c-.06,0-.12,0-.21-.01-.08,0-.15-.02-.2-.03-1.02-.1-1.83-.2-2.44-.3-.61-.09-1.18-.23-1.73-.39s-1-.39-1.38-.67c-.44-.32-.55-.57-.34-.75.21-.18.71-.27,1.52-.27.75,0,1.59.12,2.51.36.93.24,1.87.58,2.84,1.03l2.52-1.37c-1.23-.67-2.52-1.23-3.87-1.7-1.35-.46-2.72-.82-4.11-1.06-1.39-.24-2.75-.36-4.07-.36-1.55,0-2.66.18-3.35.51-.69.34-.91.82-.66,1.45s.95,1.37,2.12,2.23,2.44,1.59,3.7,2.12c1.26.53,2.46.91,3.61,1.15,1.14.24,2.44.45,3.9.63.07,0,.13.02.18.02.05,0,.11.02.18.03.24.03.48.05.71.08.23.03.44.06.65.08.97.11,1.74.21,2.3.3s1.11.22,1.64.39c.53.17,1.01.41,1.44.73.45.33.57.6.37.81-.21.21-.74.31-1.61.31-.95,0-1.99-.14-3.12-.42-1.14-.28-2.27-.68-3.4-1.18l-2.46,1.43c1.24.69,2.58,1.28,4.03,1.78s2.92.87,4.43,1.13c1.51.26,2.99.38,4.45.38,1.63,0,2.82-.18,3.57-.53.75-.35,1.01-.85.78-1.49-.23-.64-.95-1.41-2.16-2.29-1.37-1-2.74-1.78-4.11-2.34-1.37-.55-2.64-.94-3.82-1.16Z"/>
          <path d="m328.35,671.5c1.81.39,3.59.59,5.36.59,1.53,0,2.64-.13,3.35-.39s.99-.67.87-1.23-.66-1.25-1.6-2.09l-6.61-1.1c.54.54.77.94.71,1.2-.07.26-.45.4-1.16.4-.9,0-1.84-.17-2.82-.52-.98-.35-1.9-.84-2.77-1.47l-5-3.64c-.9-.66-1.34-1.16-1.31-1.52.03-.36.47-.53,1.34-.54.7,0,1.46.13,2.27.4.81.27,1.69.69,2.64,1.26l3.6-1.08c-1.38-.86-2.77-1.57-4.18-2.13s-2.83-.97-4.25-1.24c-1.43-.26-2.89-.39-4.39-.39-1.75,0-2.98.21-3.69.61-.71.4-.87.98-.48,1.75.39.77,1.32,1.68,2.78,2.75l5.35,3.9c1.45,1.06,3.03,1.97,4.74,2.73,1.7.76,3.46,1.34,5.26,1.73Z"/>
          <path d="m336.3,662.92c-.76-.55-1.13-.98-1.1-1.28.03-.3.45-.45,1.27-.45s1.68.14,2.55.44c.87.29,1.69.72,2.46,1.28l12.37,8.96h5.56s-13.02-9.43-13.02-9.43c-1.99-1.44-4.04-2.55-6.13-3.34-2.1-.78-4.06-1.17-5.9-1.16-1.21,0-1.96.23-2.23.68-.21.35-.15.82.19,1.4l-10.06-7.3-5.48.02,26.33,19.13h5.53s-12.35-8.96-12.35-8.96Z"/>
          <path d="m362.84,660.06c-1.63-.72-3.31-1.26-5.05-1.63-1.74-.37-3.45-.55-5.14-.55s-2.9.2-3.59.57c-.69.38-.85.93-.49,1.64.36.72,1.24,1.58,2.64,2.6l6.22,4.5c1.42,1.02,2.95,1.9,4.59,2.63,1.65.73,3.34,1.28,5.08,1.66,1.74.38,3.47.57,5.19.57s2.91-.19,3.6-.58.86-.94.5-1.66c-.37-.72-1.26-1.59-2.67-2.61l-6.32-4.55c-1.41-1.01-2.93-1.88-4.56-2.6Zm5.14,7.02c.76.55,1.13.98,1.1,1.28s-.45.46-1.26.46-1.67-.15-2.53-.45c-.86-.3-1.67-.73-2.45-1.29l-5.94-4.29c-.74-.54-1.1-.96-1.07-1.26.03-.3.46-.45,1.27-.45s1.65.14,2.5.44c.86.29,1.67.71,2.42,1.26l5.95,4.29Z"/>
          <path d="m303.69,659.83c-1.24,0-1.39.64-.33,1.41.17.12,1.12.89,1.12.89,2.55,2.19,2.84,3.91.46,3.91-2.69,0-7.96-2.18-11.5-4.77-1.06-.78-2.92-1.4-4.16-1.4-1.24,0-1.38.63-.33,1.41,2.65,1.95,6.07,3.79,9.64,5.2,3.85,1.52,7.57,2.39,10.21,2.39,1.74,0,2.91-.39,3.42-1.09l4.68,3.42c.63.46,1.11.91,1.42,1.34.71.98.41,1.68-.83,1.94-1.23.25-3.18.03-5.36-.63-1.64-.49-2.94-.4-2.9.21.04.61,1.4,1.5,3.05,1.99,2.99.9,5.76,1.37,7.95,1.37.8,0,1.53-.06,2.16-.19,2.34-.48,2.92-1.81,1.6-3.63-.56-.77-1.41-1.58-2.55-2.4l-12.2-8.9c-.42-.35-.87-.7-1.36-1.06-1.07-.78-2.94-1.4-4.18-1.4Z"/>
          <polygon points="335.29 676.83 383.42 676.83 379.66 674.12 331.61 674.14 335.29 676.83"/>
          <polygon points="283.17 676.84 307.77 676.83 304.12 674.16 279.57 674.17 283.17 676.84"/>
          <path d="m301.39,656.1c1.32.96,1.14,1.75-.41,1.75s-3.86-.77-5.18-1.73-1.13-1.75.41-1.75,3.86.77,5.18,1.73Z"/>
          <path d="m287.3,656.38c1.31.96,1.13,1.74-.41,1.75s-3.84-.77-5.15-1.73-1.13-1.74.41-1.75,3.84.77,5.15,1.73Z"/>
        </g>
        <path d="m466.3,691.23H135.99c-.71,0-1.37-.28-1.87-.78l-45.84-45.84c-.76-.76-.98-1.89-.58-2.88.41-.99,1.37-1.64,2.44-1.64l329.22-1.1c.7-.04,1.39.28,1.88.78l46.94,46.94c.76.76.99,1.89.57,2.89s-1.37,1.63-2.45,1.63Zm-329.75-4h326.49l-44.23-44.23-325.41,1.08,43.15,43.15Z"/>
        <path d="m438.16,685.03H146.91c-2.09,0-4.12-.85-5.59-2.34l-26.82-27.3c-1.59-1.61-2.03-3.91-1.16-6s2.82-3.39,5.08-3.4l291.33-.79c2.14-.02,4.22.88,5.69,2.43l26.72,28.06c1.55,1.63,1.96,3.92,1.08,5.99-.89,2.07-2.83,3.35-5.08,3.35Zm-28.39-35.83h0l-291.33.79c-.94,0-1.31.72-1.4.94s-.34.99.32,1.66h0s26.82,27.3,26.82,27.3c.72.73,1.71,1.15,2.73,1.15h291.26c.91,0,1.28-.65,1.4-.92.12-.28.33-1-.3-1.65l-26.72-28.06c-.72-.76-1.73-1.19-2.78-1.19Z"/>
        <path d="m450.49,707.77H141.71c-3.64,0-7.06-1.42-9.63-4.01l-41.45-39.65c-2.82-2.83-3.14-7.52-3.14-10.81v-11.2c0-1.1.9-2,2-2s2,.9,2,2v11.2c0,3.99.65,6.66,1.94,7.96l41.45,39.65c1.85,1.86,4.27,2.87,6.83,2.87h308.78c7.97,0,14.46-6.52,14.46-14.54,0-1.1.9-2,2-2s2,.9,2,2c0,10.22-8.28,18.54-18.46,18.54Z"/>
        <path d="m439.6,903.06c4.41-10.66,14.32-17.28,25.86-17.28h30.74c7.48,0,14.5,2.91,19.79,8.2l.03.03c8.14,8.16,10.45,19.85,6.04,30.49-4.42,10.65-14.32,17.26-25.85,17.26h-30.74c-7.48,0-14.5-2.91-19.79-8.2-8.16-8.16-10.48-19.84-6.07-30.5Zm56.6-14.03h-30.74c-10.2,0-18.95,5.85-22.86,15.27-3.9,9.42-1.85,19.75,5.36,26.96,4.67,4.67,10.89,7.25,17.49,7.25h30.74c10.19,0,18.95-5.85,22.85-15.26,3.9-9.41,1.86-19.74-5.34-26.95l-.02-.02c-4.67-4.67-10.88-7.24-17.49-7.24Z"/>
        <g>
          <g>
            <circle class="e" cx="350.66" cy="753.63" r="17.82"/>
            <path d="m350.66,772.62c-10.47,0-18.99-8.52-18.99-18.99s8.52-18.99,18.99-18.99,19,8.52,19,18.99-8.52,18.99-19,18.99Zm0-35.63c-9.18,0-16.64,7.46-16.64,16.64s7.46,16.64,16.64,16.64,16.64-7.46,16.64-16.64-7.46-16.64-16.64-16.64Z"/>
          </g>
          <g>
            <circle class="e" cx="352.31" cy="747.79" r="17.82"/>
            <path d="m352.31,766.79c-10.47,0-18.99-8.52-18.99-18.99s8.52-18.99,18.99-18.99,18.99,8.52,18.99,18.99-8.52,18.99-18.99,18.99Zm0-35.63c-9.18,0-16.64,7.46-16.64,16.64s7.46,16.64,16.64,16.64,16.64-7.46,16.64-16.64-7.46-16.64-16.64-16.64Z"/>
          </g>
        </g>
        <g>
          <g>
            <circle class="e" cx="255.01" cy="753.63" r="17.82"/>
            <path d="m255.01,772.62c-10.47,0-18.99-8.52-18.99-18.99s8.52-18.99,18.99-18.99,19,8.52,19,18.99-8.52,18.99-19,18.99Zm0-35.63c-9.18,0-16.64,7.46-16.64,16.64s7.46,16.64,16.64,16.64,16.64-7.46,16.64-16.64-7.46-16.64-16.64-16.64Z"/>
          </g>
          <g>
            <circle class="e" cx="256.66" cy="747.79" r="17.82"/>
            <path d="m256.65,766.79c-10.47,0-18.99-8.52-18.99-18.99s8.52-18.99,18.99-18.99,18.99,8.52,18.99,18.99-8.52,18.99-18.99,18.99Zm0-35.63c-9.18,0-16.64,7.46-16.64,16.64s7.46,16.64,16.64,16.64,16.64-7.46,16.64-16.64-7.46-16.64-16.64-16.64Z"/>
          </g>
        </g>
        <g>
          <g>
            <circle class="e" cx="424.51" cy="827.47" r="17.82"/>
            <path d="m424.51,846.47c-10.47,0-18.99-8.52-18.99-18.99s8.52-18.99,18.99-18.99,19,8.52,19,18.99-8.52,18.99-19,18.99Zm0-35.63c-9.18,0-16.64,7.46-16.64,16.64s7.46,16.64,16.64,16.64,16.64-7.46,16.64-16.64-7.46-16.64-16.64-16.64Z"/>
          </g>
          <g>
            <circle class="e" cx="426.15" cy="821.64" r="17.82"/>
            <path d="m426.15,840.63c-10.47,0-18.99-8.52-18.99-18.99s8.52-18.99,18.99-18.99,18.99,8.52,18.99,18.99-8.52,18.99-18.99,18.99Zm0-35.63c-9.18,0-16.64,7.46-16.64,16.64s7.46,16.64,16.64,16.64,16.64-7.46,16.64-16.64-7.46-16.64-16.64-16.64Z"/>
          </g>
        </g>
        <g>
          <g>
            <circle class="e" cx="328.85" cy="827.47" r="17.82"/>
            <path d="m328.85,846.47c-10.47,0-18.99-8.52-18.99-18.99s8.52-18.99,18.99-18.99,19,8.52,19,18.99-8.52,18.99-19,18.99Zm0-35.63c-9.18,0-16.64,7.46-16.64,16.64s7.46,16.64,16.64,16.64,16.64-7.46,16.64-16.64-7.46-16.64-16.64-16.64Z"/>
          </g>
          <g>
            <circle class="e" cx="330.5" cy="821.64" r="17.82"/>
            <path d="m330.5,840.63c-10.47,0-18.99-8.52-18.99-18.99s8.52-18.99,18.99-18.99,18.99,8.52,18.99,18.99-8.52,18.99-18.99,18.99Zm0-35.63c-9.18,0-16.64,7.46-16.64,16.64s7.46,16.64,16.64,16.64,16.64-7.46,16.64-16.64-7.46-16.64-16.64-16.64Z"/>
          </g>
        </g>
        <g>
          <g>
            <circle class="e" cx="441.5" cy="753.27" r="17.82"/>
            <path d="m441.5,772.26c-10.47,0-18.99-8.52-18.99-18.99s8.52-18.99,18.99-18.99,19,8.52,19,18.99-8.52,18.99-19,18.99Zm0-35.63c-9.18,0-16.64,7.46-16.64,16.64s7.46,16.64,16.64,16.64,16.64-7.46,16.64-16.64-7.46-16.64-16.64-16.64Z"/>
          </g>
          <g>
            <circle class="e" cx="443.15" cy="747.43" r="17.82"/>
            <path d="m443.15,766.42c-10.47,0-18.99-8.52-18.99-18.99s8.52-18.99,18.99-18.99,18.99,8.52,18.99,18.99-8.52,18.99-18.99,18.99Zm0-35.63c-9.18,0-16.64,7.46-16.64,16.64s7.46,16.64,16.64,16.64,16.64-7.46,16.64-16.64-7.46-16.64-16.64-16.64Z"/>
          </g>
        </g>
        <g>
          <g>
            <circle class="e" cx="513.55" cy="827.47" r="17.82"/>
            <path d="m513.55,846.47c-10.47,0-18.99-8.52-18.99-18.99s8.52-18.99,18.99-18.99,19,8.52,19,18.99-8.52,18.99-19,18.99Zm0-35.63c-9.18,0-16.64,7.46-16.64,16.64s7.46,16.64,16.64,16.64,16.64-7.46,16.64-16.64-7.46-16.64-16.64-16.64Z"/>
          </g>
          <g>
            <circle class="e" cx="515.19" cy="821.64" r="17.82"/>
            <path d="m515.19,840.63c-10.47,0-18.99-8.52-18.99-18.99s8.52-18.99,18.99-18.99,18.99,8.52,18.99,18.99-8.52,18.99-18.99,18.99Zm0-35.63c-9.18,0-16.64,7.46-16.64,16.64s7.46,16.64,16.64,16.64,16.64-7.46,16.64-16.64-7.46-16.64-16.64-16.64Z"/>
          </g>
        </g>
        <path d="m1404.5,1004.98c-1.15,0-2.3-.44-3.18-1.32l-398.68-398.68H5.54c-2.49,0-4.5-2.01-4.5-4.5s2.01-4.5,4.5-4.5h1000.82l1.32,1.32,400,400c1.76,1.76,1.76,4.61,0,6.36-.88.88-2.03,1.32-3.18,1.32Z"/>
        <path d="m804.38,1004.98c-1.15,0-2.3-.44-3.18-1.32l-399.09-399.08c-1.76-1.76-1.76-4.61,0-6.36,1.76-1.76,4.61-1.76,6.36,0l399.08,399.09c1.76,1.76,1.76,4.61,0,6.36-.88.88-2.03,1.32-3.18,1.32Z"/>
        <path d="m804.39,604.98c-.31,0-.61-.03-.92-.1-2.43-.51-3.99-2.89-3.49-5.33l51.99-248.84h-190.69l-52.37,250.68c-.51,2.43-2.89,3.99-5.33,3.48-2.43-.51-3.99-2.89-3.48-5.33l53.87-257.84h209.07l-54.25,259.68c-.44,2.12-2.32,3.58-4.4,3.58Z"/>
        <g>
          <path class="e" d="m804.38,800.36l53.12-254.26h-199.88l-52.47,251.14c-.34,1.61.89,3.12,2.54,3.12h196.69Z"/>
          <path d="m808.04,804.86h-200.35c-2.15,0-4.15-.95-5.5-2.62-1.35-1.66-1.88-3.82-1.44-5.92l53.21-254.72h209.07l-55,263.26Zm-198-9h190.69l51.24-245.26h-190.69l-51.24,245.26Z"/>
        </g>
        <g>
          <path class="e" d="m1203.78,800.36l53.12-254.26h-199.88l-52.47,251.14c-.34,1.61.89,3.12,2.54,3.12h196.69Z"/>
          <path d="m1207.44,804.86h-200.35c-2.14,0-4.15-.95-5.5-2.62s-1.88-3.82-1.44-5.92l53.22-254.72h209.07l-55,263.26Zm-198-9h190.69l51.24-245.26h-190.69l-51.24,245.26Z"/>
        </g>
        <g>
          <path class="e" d="m516.02,891.1c-4.67-4.67-10.88-7.24-17.49-7.24h-30.74c-10.2,0-18.95,5.85-22.86,15.27-3.9,9.42-1.85,19.75,5.36,26.96,4.67,4.67,10.89,7.25,17.49,7.25h30.74c10.19,0,18.95-5.85,22.85-15.26,3.9-9.41,1.86-19.74-5.34-26.95,0,0-.01-.01-.02-.02Z"/>
          <path d="m518.34,888.83s-.02-.02-.03-.03c-5.29-5.29-12.31-8.2-19.79-8.2h-30.74c-11.54,0-21.44,6.62-25.86,17.28-4.41,10.66-2.09,22.34,6.07,30.5,5.29,5.29,12.32,8.2,19.79,8.2h30.74c11.53,0,21.43-6.61,25.85-17.26,4.42-10.65,2.1-22.33-6.04-30.49Zm3.04,29.25c-3.91,9.41-12.66,15.26-22.85,15.26h-30.74c-6.61,0-12.82-2.57-17.49-7.25-7.21-7.21-9.27-17.54-5.36-26.96,3.9-9.42,12.66-15.27,22.86-15.27h30.74c6.61,0,12.82,2.57,17.49,7.24,0,0,.01.01.02.02,7.2,7.21,9.24,17.54,5.34,26.95Z"/>
        </g>
      </g>
      <rect x="796.96" y="1000.48" width="9" height="201.83"/>
    </g>
    <g id="c" data-name="Camada 3">
      <polygon class="g" points="1404.5 1000.48 1203.78 800.36 1256.9 546.1 1057.02 546.1 1038.29 635.77 1003.23 600.71 845.95 600.71 857.5 546.1 815.93 546.1 857.5 345.35 656.8 345.35 604.84 599.96 408.48 599.96 804.38 998.83 1404.5 1000.48"/>
      <polygon class="g" points="804.38 998.83 804.38 1202.3 1404.5 1202.3 1404.5 1000.48 804.38 998.83"/>
      <polygon class="f" points="5.54 604.98 5.54 802.34 404.06 1198.78 801.46 1202.3 801.46 1000.48 402.11 598.21 5.54 604.98"/>
      <path class="i" d="m409.77,649.2h0l-291.33.79c-.94,0-1.31.72-1.4.94s-.34.99.32,1.66h0s26.82,27.3,26.82,27.3c.72.73,1.71,1.15,2.73,1.15h291.26c.91,0,1.28-.65,1.4-.92.12-.28.33-1-.3-1.65l-26.72-28.06c-.72-.76-1.73-1.19-2.78-1.19Z"/>
      <g class="j">
        <g>
          <circle class="l" cx="350.66" cy="753.63" r="17.82"/>
          <circle class="l" cx="352.31" cy="747.79" r="17.82"/>
          <circle class="l" cx="328.85" cy="827.47" r="17.82"/>
          <circle class="l" cx="330.5" cy="821.64" r="17.82"/>
          <circle class="l" cx="513.55" cy="827.47" r="17.82"/>
          <circle class="l" cx="515.19" cy="821.64" r="17.82"/>
        </g>
        <g>
          <circle class="m" cx="255.01" cy="753.63" r="17.82"/>
          <circle class="m" cx="256.66" cy="747.79" r="17.82"/>
          <circle class="m" cx="424.51" cy="827.47" r="17.82"/>
          <circle class="m" cx="426.15" cy="821.64" r="17.82"/>
          <circle class="m" cx="441.5" cy="753.27" r="17.82"/>
          <circle class="m" cx="443.15" cy="747.43" r="17.82"/>
          <path class="f" d="m448.78,890.54c4.44-4.49,10.63-7.87,18.08-7.84l36.56-.04c6.8.03,6.29,1.98,11.12,6.82l2.58,1.06c11.36,11.39,8.07,23.02,2.21,33.35l-4.76,8.64c-.74.85-1.55,1.66-2.4,2.4l-.33.33h-.05c-4.26,3.56-9.84,5.78-16.35,5.75l-29.87-.14c-6.79-.03-13.32-2.76-18.15-7.59h0c-10.58-10.58-12.34-24.74-3.92-34.14v-2.22l5.28-6.41Z"/>
        </g>
      </g>
    </g>
    <g id="d" data-name="Camada 4">
      <polygon class="h" points="1202.02 999.92 1402.84 999.92 1203.78 800.36 1202.02 999.92"/>
      <polygon class="h" points="804.45 999.92 1005.27 999.92 806.21 800.36 804.45 999.92"/>
      <polygon class="h" points="804.45 799.8 1005.27 799.8 839.67 638.83 804.45 799.8"/>
      <path class="h" d="m1101.07,978.85h-50.87c-1.93,0-3.5-1.57-3.5-3.5s1.57-3.5,3.5-3.5h50.87c1.93,0,3.5,1.57,3.5,3.5s-1.57,3.5-3.5,3.5Z"/>
      <polygon class="h" points="657.62 546.1 657.62 770.27 804.45 799.8 604.84 799.8 657.62 546.1"/>
      <polygon class="h" points="657.62 346.5 653.67 571.26 647.05 596.89 604.84 600.2 657.62 346.5"/>
      <polygon class="h" points="1057.42 546.1 1057.42 770.27 1204.24 799.8 1004.64 799.8 1057.42 546.1"/>
      <polygon class="h" points="5.54 753.63 400.48 1148.57 1404.5 1148.57 1404.5 1202.3 404.06 1202.3 4.82 803.06 5.54 753.63"/>
      <g class="h">
        <path d="m352.31,765.61c-9.84,0-17.82-7.98-17.82-17.82,0-.61.03-1.21.09-1.8-1.1,2.32-1.74,4.9-1.74,7.64,0,9.84,7.98,17.82,17.82,17.82,9.23,0,16.82-7.02,17.73-16.02-2.86,6.01-8.98,10.18-16.08,10.18Z"/>
        <path d="m330.5,839.46c-9.84,0-17.82-7.98-17.82-17.82,0-.61.03-1.21.09-1.8-1.1,2.32-1.74,4.9-1.74,7.64,0,9.84,7.98,17.82,17.82,17.82,9.23,0,16.82-7.02,17.73-16.02-2.86,6.01-8.98,10.18-16.08,10.18Z"/>
        <path d="m443.19,765.61c-9.84,0-17.82-7.98-17.82-17.82,0-.61.03-1.21.09-1.8-1.1,2.32-1.74,4.9-1.74,7.64,0,9.84,7.98,17.82,17.82,17.82,9.23,0,16.82-7.02,17.73-16.02-2.86,6.01-8.98,10.18-16.08,10.18Z"/>
        <path d="m256.66,765.61c-9.84,0-17.82-7.98-17.82-17.82,0-.61.03-1.21.09-1.8-1.1,2.32-1.74,4.9-1.74,7.64,0,9.84,7.98,17.82,17.82,17.82,9.23,0,16.82-7.02,17.73-16.02-2.86,6.01-8.98,10.18-16.08,10.18Z"/>
        <path d="m426.15,839.46c-9.84,0-17.82-7.98-17.82-17.82,0-.61.03-1.21.09-1.8-1.1,2.32-1.74,4.9-1.74,7.64,0,9.84,7.98,17.82,17.82,17.82,9.23,0,16.82-7.02,17.73-16.02-2.86,6.01-8.98,10.18-16.08,10.18Z"/>
        <path d="m515.24,839.46c-9.84,0-17.82-7.98-17.82-17.82,0-.61.03-1.21.09-1.8-1.1,2.32-1.74,4.9-1.74,7.64,0,9.84,7.98,17.82,17.82,17.82,9.23,0,16.82-7.02,17.73-16.02-2.86,6.01-8.98,10.18-16.08,10.18Z"/>
      </g>
      <path class="h" d="m91.49,643.78l44.62,45.39h330.26s0,16.57-15.07,16.57H142.37s-3.23,2.64-14.87-9-37.17-36.9-37.17-36.9c0,0-1.58-10.9,1.17-16.05Z"/>
    </g>
  </g>
</svg>